<?xml version="1.0" encoding="utf-8" standalone="no"?>
<!DOCTYPE svg PUBLIC "-//W3C//DTD SVG 1.1//EN"
  "http://www.w3.org/Graphics/SVG/1.1/DTD/svg11.dtd">
<svg xmlns:xlink="http://www.w3.org/1999/xlink" width="487.743522pt" height="285.049064pt" viewBox="0 0 487.743522 285.049064" xmlns="http://www.w3.org/2000/svg" version="1.1">
 <metadata>
  <rdf:RDF xmlns:dc="http://purl.org/dc/elements/1.1/" xmlns:cc="http://creativecommons.org/ns#" xmlns:rdf="http://www.w3.org/1999/02/22-rdf-syntax-ns#">
   <cc:Work>
    <dc:type rdf:resource="http://purl.org/dc/dcmitype/StillImage"/>
    <dc:date>2022-06-15T10:27:46.793943</dc:date>
    <dc:format>image/svg+xml</dc:format>
    <dc:creator>
     <cc:Agent>
      <dc:title>Matplotlib v3.5.2, https://matplotlib.org/</dc:title>
     </cc:Agent>
    </dc:creator>
   </cc:Work>
  </rdf:RDF>
 </metadata>
 <defs>
  <style type="text/css">*{stroke-linejoin: round; stroke-linecap: butt}</style>
 </defs>
 <g id="figure_1">
  <g id="patch_1">
   <path d="M 0 285.049064 
L 487.743522 285.049064 
L 487.743522 0 
L 0 0 
L 0 285.049064 
z
" style="fill: none"/>
  </g>
  <g id="axes_1">
   <g id="patch_2">
    <path d="M 34.143522 256.68 
L 480.543522 256.68 
L 480.543522 7.2 
L 34.143522 7.2 
L 34.143522 256.68 
z
" style="fill: none"/>
   </g>
   <g id="matplotlib.axis_1">
    <g id="xtick_1">
     <g id="line2d_1">
      <defs>
       <path id="m5a512ace43" d="M 0 0 
L 0 3.5 
" style="stroke: #000000; stroke-width: 0.8"/>
      </defs>
      <g>
       <use xlink:href="#m5a512ace43" x="54.434431" y="256.68" style="stroke: #000000; stroke-width: 0.8"/>
      </g>
     </g>
     <g id="text_1">
      <!-- $\mathdefault{0.0}$ -->
      <g transform="translate(44.46267 274.749588)scale(0.16 -0.16)">
       <defs>
        <path id="CMR17-30" d="M 2688 2038 
C 2688 2430 2682 3099 2413 3613 
C 2176 4063 1798 4224 1466 4224 
C 1158 4224 768 4082 525 3620 
C 269 3137 243 2539 243 2038 
C 243 1671 250 1112 448 623 
C 723 -39 1216 -128 1466 -128 
C 1760 -128 2208 -7 2470 604 
C 2662 1048 2688 1568 2688 2038 
z
M 1466 -26 
C 1056 -26 813 328 723 816 
C 653 1196 653 1749 653 2109 
C 653 2604 653 3015 736 3407 
C 858 3954 1216 4121 1466 4121 
C 1728 4121 2067 3947 2189 3420 
C 2272 3054 2278 2623 2278 2109 
C 2278 1691 2278 1176 2202 797 
C 2067 96 1690 -26 1466 -26 
z
" transform="scale(0.015625)"/>
        <path id="CMMI12-3a" d="M 1178 307 
C 1178 492 1024 620 870 620 
C 685 620 557 467 557 313 
C 557 128 710 0 864 0 
C 1050 0 1178 153 1178 307 
z
" transform="scale(0.015625)"/>
       </defs>
       <use xlink:href="#CMR17-30" transform="scale(0.996264)"/>
       <use xlink:href="#CMMI12-3a" transform="translate(45.690477 0)scale(0.996264)"/>
       <use xlink:href="#CMR17-30" transform="translate(72.787654 0)scale(0.996264)"/>
      </g>
     </g>
    </g>
    <g id="xtick_2">
     <g id="line2d_2">
      <g>
       <use xlink:href="#m5a512ace43" x="136.417903" y="256.68" style="stroke: #000000; stroke-width: 0.8"/>
      </g>
     </g>
     <g id="text_2">
      <!-- $\mathdefault{0.2}$ -->
      <g transform="translate(126.446141 274.749588)scale(0.16 -0.16)">
       <defs>
        <path id="CMR17-32" d="M 2669 990 
L 2554 990 
C 2490 537 2438 460 2413 422 
C 2381 371 1920 371 1830 371 
L 602 371 
C 832 620 1280 1073 1824 1596 
C 2214 1966 2669 2400 2669 3033 
C 2669 3788 2067 4224 1395 4224 
C 691 4224 262 3603 262 3027 
C 262 2777 448 2745 525 2745 
C 589 2745 781 2783 781 3007 
C 781 3206 614 3264 525 3264 
C 486 3264 448 3257 422 3244 
C 544 3788 915 4057 1306 4057 
C 1862 4057 2227 3616 2227 3033 
C 2227 2477 1901 1998 1536 1583 
L 262 147 
L 262 0 
L 2515 0 
L 2669 990 
z
" transform="scale(0.015625)"/>
       </defs>
       <use xlink:href="#CMR17-30" transform="scale(0.996264)"/>
       <use xlink:href="#CMMI12-3a" transform="translate(45.690477 0)scale(0.996264)"/>
       <use xlink:href="#CMR17-32" transform="translate(72.787654 0)scale(0.996264)"/>
      </g>
     </g>
    </g>
    <g id="xtick_3">
     <g id="line2d_3">
      <g>
       <use xlink:href="#m5a512ace43" x="218.401374" y="256.68" style="stroke: #000000; stroke-width: 0.8"/>
      </g>
     </g>
     <g id="text_3">
      <!-- $\mathdefault{0.4}$ -->
      <g transform="translate(208.429612 274.749588)scale(0.16 -0.16)">
       <defs>
        <path id="CMR17-34" d="M 2150 4147 
C 2150 4281 2144 4288 2029 4288 
L 128 1254 
L 128 1088 
L 1779 1088 
L 1779 460 
C 1779 230 1766 166 1318 166 
L 1197 166 
L 1197 0 
C 1402 12 1747 12 1965 12 
C 2182 12 2528 12 2733 0 
L 2733 166 
L 2611 166 
C 2163 166 2150 230 2150 460 
L 2150 1088 
L 2803 1088 
L 2803 1254 
L 2150 1254 
L 2150 4147 
z
M 1798 3723 
L 1798 1254 
L 256 1254 
L 1798 3723 
z
" transform="scale(0.015625)"/>
       </defs>
       <use xlink:href="#CMR17-30" transform="scale(0.996264)"/>
       <use xlink:href="#CMMI12-3a" transform="translate(45.690477 0)scale(0.996264)"/>
       <use xlink:href="#CMR17-34" transform="translate(72.787654 0)scale(0.996264)"/>
      </g>
     </g>
    </g>
    <g id="xtick_4">
     <g id="line2d_4">
      <g>
       <use xlink:href="#m5a512ace43" x="300.384845" y="256.68" style="stroke: #000000; stroke-width: 0.8"/>
      </g>
     </g>
     <g id="text_4">
      <!-- $\mathdefault{0.6}$ -->
      <g transform="translate(290.413083 274.749588)scale(0.16 -0.16)">
       <defs>
        <path id="CMR17-36" d="M 678 2198 
C 678 3712 1395 4076 1811 4076 
C 1946 4076 2272 4049 2400 3782 
C 2298 3782 2106 3782 2106 3558 
C 2106 3385 2246 3328 2336 3328 
C 2394 3328 2566 3353 2566 3571 
C 2566 3987 2246 4224 1805 4224 
C 1043 4224 243 3411 243 2011 
C 243 257 966 -128 1478 -128 
C 2099 -128 2688 431 2688 1295 
C 2688 2101 2170 2688 1517 2688 
C 1126 2688 838 2430 678 1979 
L 678 2198 
z
M 1478 25 
C 691 25 691 1212 691 1450 
C 691 1914 909 2585 1504 2585 
C 1613 2585 1926 2585 2138 2140 
C 2253 1889 2253 1624 2253 1302 
C 2253 954 2253 696 2118 438 
C 1978 173 1773 25 1478 25 
z
" transform="scale(0.015625)"/>
       </defs>
       <use xlink:href="#CMR17-30" transform="scale(0.996264)"/>
       <use xlink:href="#CMMI12-3a" transform="translate(45.690477 0)scale(0.996264)"/>
       <use xlink:href="#CMR17-36" transform="translate(72.787654 0)scale(0.996264)"/>
      </g>
     </g>
    </g>
    <g id="xtick_5">
     <g id="line2d_5">
      <g>
       <use xlink:href="#m5a512ace43" x="382.368316" y="256.68" style="stroke: #000000; stroke-width: 0.8"/>
      </g>
     </g>
     <g id="text_5">
      <!-- $\mathdefault{0.8}$ -->
      <g transform="translate(372.396555 274.749588)scale(0.16 -0.16)">
       <defs>
        <path id="CMR17-38" d="M 1741 2289 
C 2144 2494 2554 2803 2554 3298 
C 2554 3884 1990 4224 1472 4224 
C 890 4224 378 3800 378 3215 
C 378 3054 416 2777 666 2533 
C 730 2469 998 2276 1171 2154 
C 883 2006 211 1652 211 945 
C 211 282 838 -128 1459 -128 
C 2144 -128 2720 366 2720 1022 
C 2720 1607 2330 1877 2074 2051 
L 1741 2289 
z
M 902 2855 
C 851 2887 595 3086 595 3388 
C 595 3781 998 4076 1459 4076 
C 1965 4076 2336 3716 2336 3298 
C 2336 2700 1670 2359 1638 2359 
C 1632 2359 1626 2359 1574 2398 
L 902 2855 
z
M 2080 1536 
C 2176 1466 2483 1253 2483 861 
C 2483 385 2010 25 1472 25 
C 890 25 448 443 448 951 
C 448 1459 838 1884 1280 2083 
L 2080 1536 
z
" transform="scale(0.015625)"/>
       </defs>
       <use xlink:href="#CMR17-30" transform="scale(0.996264)"/>
       <use xlink:href="#CMMI12-3a" transform="translate(45.690477 0)scale(0.996264)"/>
       <use xlink:href="#CMR17-38" transform="translate(72.787654 0)scale(0.996264)"/>
      </g>
     </g>
    </g>
    <g id="xtick_6">
     <g id="line2d_6">
      <g>
       <use xlink:href="#m5a512ace43" x="464.351787" y="256.68" style="stroke: #000000; stroke-width: 0.8"/>
      </g>
     </g>
     <g id="text_6">
      <!-- $\mathdefault{1.0}$ -->
      <g transform="translate(454.380026 274.749588)scale(0.16 -0.16)">
       <defs>
        <path id="CMR17-31" d="M 1702 4083 
C 1702 4217 1696 4224 1606 4224 
C 1357 3927 979 3833 621 3820 
C 602 3820 570 3820 563 3808 
C 557 3795 557 3782 557 3648 
C 755 3648 1088 3686 1344 3839 
L 1344 467 
C 1344 243 1331 166 781 166 
L 589 166 
L 589 0 
C 896 6 1216 12 1523 12 
C 1830 12 2150 6 2458 0 
L 2458 166 
L 2266 166 
C 1715 166 1702 236 1702 467 
L 1702 4083 
z
" transform="scale(0.015625)"/>
       </defs>
       <use xlink:href="#CMR17-31" transform="scale(0.996264)"/>
       <use xlink:href="#CMMI12-3a" transform="translate(45.690477 0)scale(0.996264)"/>
       <use xlink:href="#CMR17-30" transform="translate(72.787654 0)scale(0.996264)"/>
      </g>
     </g>
    </g>
   </g>
   <g id="matplotlib.axis_2">
    <g id="ytick_1">
     <g id="line2d_7">
      <defs>
       <path id="mf3d5af7b2b" d="M 0 0 
L -3.5 0 
" style="stroke: #000000; stroke-width: 0.8"/>
      </defs>
      <g>
       <use xlink:href="#mf3d5af7b2b" x="34.143522" y="245.34" style="stroke: #000000; stroke-width: 0.8"/>
      </g>
     </g>
     <g id="text_7">
      <!-- $\mathdefault{1.0}$ -->
      <g transform="translate(7.2 250.874794)scale(0.16 -0.16)">
       <use xlink:href="#CMR17-31" transform="scale(0.996264)"/>
       <use xlink:href="#CMMI12-3a" transform="translate(45.690477 0)scale(0.996264)"/>
       <use xlink:href="#CMR17-30" transform="translate(72.787654 0)scale(0.996264)"/>
      </g>
     </g>
    </g>
    <g id="ytick_2">
     <g id="line2d_8">
      <g>
       <use xlink:href="#mf3d5af7b2b" x="34.143522" y="199.98" style="stroke: #000000; stroke-width: 0.8"/>
      </g>
     </g>
     <g id="text_8">
      <!-- $\mathdefault{1.5}$ -->
      <g transform="translate(7.2 205.514794)scale(0.16 -0.16)">
       <defs>
        <path id="CMR17-35" d="M 730 3750 
C 794 3724 1056 3641 1325 3641 
C 1920 3641 2246 3961 2432 4140 
C 2432 4191 2432 4224 2394 4224 
C 2387 4224 2374 4224 2323 4198 
C 2099 4102 1837 4032 1517 4032 
C 1325 4032 1037 4055 723 4191 
C 653 4224 640 4224 634 4224 
C 602 4224 595 4217 595 4090 
L 595 2231 
C 595 2113 595 2080 659 2080 
C 691 2080 704 2093 736 2139 
C 941 2435 1222 2560 1542 2560 
C 1766 2560 2246 2415 2246 1293 
C 2246 1087 2246 716 2054 422 
C 1894 159 1645 25 1370 25 
C 947 25 518 319 403 812 
C 429 806 480 793 506 793 
C 589 793 749 838 749 1036 
C 749 1209 627 1280 506 1280 
C 358 1280 262 1190 262 1011 
C 262 454 704 -128 1382 -128 
C 2042 -128 2669 441 2669 1267 
C 2669 2054 2170 2662 1549 2662 
C 1222 2662 947 2540 730 2304 
L 730 3750 
z
" transform="scale(0.015625)"/>
       </defs>
       <use xlink:href="#CMR17-31" transform="scale(0.996264)"/>
       <use xlink:href="#CMMI12-3a" transform="translate(45.690477 0)scale(0.996264)"/>
       <use xlink:href="#CMR17-35" transform="translate(72.787654 0)scale(0.996264)"/>
      </g>
     </g>
    </g>
    <g id="ytick_3">
     <g id="line2d_9">
      <g>
       <use xlink:href="#mf3d5af7b2b" x="34.143522" y="154.62" style="stroke: #000000; stroke-width: 0.8"/>
      </g>
     </g>
     <g id="text_9">
      <!-- $\mathdefault{2.0}$ -->
      <g transform="translate(7.2 160.154794)scale(0.16 -0.16)">
       <use xlink:href="#CMR17-32" transform="scale(0.996264)"/>
       <use xlink:href="#CMMI12-3a" transform="translate(45.690477 0)scale(0.996264)"/>
       <use xlink:href="#CMR17-30" transform="translate(72.787654 0)scale(0.996264)"/>
      </g>
     </g>
    </g>
    <g id="ytick_4">
     <g id="line2d_10">
      <g>
       <use xlink:href="#mf3d5af7b2b" x="34.143522" y="109.26" style="stroke: #000000; stroke-width: 0.8"/>
      </g>
     </g>
     <g id="text_10">
      <!-- $\mathdefault{2.5}$ -->
      <g transform="translate(7.2 114.794794)scale(0.16 -0.16)">
       <use xlink:href="#CMR17-32" transform="scale(0.996264)"/>
       <use xlink:href="#CMMI12-3a" transform="translate(45.690477 0)scale(0.996264)"/>
       <use xlink:href="#CMR17-35" transform="translate(72.787654 0)scale(0.996264)"/>
      </g>
     </g>
    </g>
    <g id="ytick_5">
     <g id="line2d_11">
      <g>
       <use xlink:href="#mf3d5af7b2b" x="34.143522" y="63.9" style="stroke: #000000; stroke-width: 0.8"/>
      </g>
     </g>
     <g id="text_11">
      <!-- $\mathdefault{3.0}$ -->
      <g transform="translate(7.2 69.434794)scale(0.16 -0.16)">
       <defs>
        <path id="CMR17-33" d="M 1414 2176 
C 1984 2176 2234 1673 2234 1094 
C 2234 322 1824 25 1453 25 
C 1114 25 563 193 390 691 
C 422 678 454 678 486 678 
C 640 678 755 780 755 947 
C 755 1132 614 1216 486 1216 
C 378 1216 211 1164 211 927 
C 211 335 787 -128 1466 -128 
C 2176 -128 2720 432 2720 1087 
C 2720 1718 2208 2176 1600 2246 
C 2086 2347 2554 2776 2554 3353 
C 2554 3856 2048 4224 1472 4224 
C 890 4224 378 3862 378 3347 
C 378 3123 544 3084 627 3084 
C 762 3084 877 3167 877 3334 
C 877 3500 762 3584 627 3584 
C 602 3584 570 3584 544 3571 
C 730 3999 1235 4076 1459 4076 
C 1683 4076 2106 3966 2106 3347 
C 2106 3167 2080 2851 1862 2574 
C 1670 2329 1453 2316 1242 2297 
C 1210 2297 1062 2284 1037 2284 
C 992 2278 966 2272 966 2227 
C 966 2182 973 2176 1101 2176 
L 1414 2176 
z
" transform="scale(0.015625)"/>
       </defs>
       <use xlink:href="#CMR17-33" transform="scale(0.996264)"/>
       <use xlink:href="#CMMI12-3a" transform="translate(45.690477 0)scale(0.996264)"/>
       <use xlink:href="#CMR17-30" transform="translate(72.787654 0)scale(0.996264)"/>
      </g>
     </g>
    </g>
    <g id="ytick_6">
     <g id="line2d_12">
      <g>
       <use xlink:href="#mf3d5af7b2b" x="34.143522" y="18.54" style="stroke: #000000; stroke-width: 0.8"/>
      </g>
     </g>
     <g id="text_12">
      <!-- $\mathdefault{3.5}$ -->
      <g transform="translate(7.2 24.074794)scale(0.16 -0.16)">
       <use xlink:href="#CMR17-33" transform="scale(0.996264)"/>
       <use xlink:href="#CMMI12-3a" transform="translate(45.690477 0)scale(0.996264)"/>
       <use xlink:href="#CMR17-35" transform="translate(72.787654 0)scale(0.996264)"/>
      </g>
     </g>
    </g>
   </g>
   <g id="line2d_13">
    <defs>
     <path id="m9ad2884be1" d="M 0 1 
C 0.265203 1 0.51958 0.894634 0.707107 0.707107 
C 0.894634 0.51958 1 0.265203 1 0 
C 1 -0.265203 0.894634 -0.51958 0.707107 -0.707107 
C 0.51958 -0.894634 0.265203 -1 0 -1 
C -0.265203 -1 -0.51958 -0.894634 -0.707107 -0.707107 
C -0.894634 -0.51958 -1 -0.265203 -1 0 
C -1 0.265203 -0.894634 0.51958 -0.707107 0.707107 
C -0.51958 0.894634 -0.265203 1 0 1 
z
" style="stroke: #1f77b4"/>
    </defs>
    <g clip-path="url(#pf01be8c6ed)">
     <use xlink:href="#m9ad2884be1" x="54.434431" y="154.62" style="fill: #1f77b4; stroke: #1f77b4"/>
     <use xlink:href="#m9ad2884be1" x="58.533605" y="154.62" style="fill: #1f77b4; stroke: #1f77b4"/>
     <use xlink:href="#m9ad2884be1" x="62.632779" y="154.62" style="fill: #1f77b4; stroke: #1f77b4"/>
     <use xlink:href="#m9ad2884be1" x="66.731952" y="154.62" style="fill: #1f77b4; stroke: #1f77b4"/>
     <use xlink:href="#m9ad2884be1" x="70.831126" y="154.62" style="fill: #1f77b4; stroke: #1f77b4"/>
     <use xlink:href="#m9ad2884be1" x="74.930299" y="199.98" style="fill: #1f77b4; stroke: #1f77b4"/>
     <use xlink:href="#m9ad2884be1" x="79.029473" y="199.98" style="fill: #1f77b4; stroke: #1f77b4"/>
     <use xlink:href="#m9ad2884be1" x="83.128646" y="199.98" style="fill: #1f77b4; stroke: #1f77b4"/>
     <use xlink:href="#m9ad2884be1" x="87.22782" y="199.98" style="fill: #1f77b4; stroke: #1f77b4"/>
     <use xlink:href="#m9ad2884be1" x="91.326993" y="199.98" style="fill: #1f77b4; stroke: #1f77b4"/>
     <use xlink:href="#m9ad2884be1" x="95.426167" y="199.98" style="fill: #1f77b4; stroke: #1f77b4"/>
     <use xlink:href="#m9ad2884be1" x="99.525341" y="199.98" style="fill: #1f77b4; stroke: #1f77b4"/>
     <use xlink:href="#m9ad2884be1" x="103.624514" y="199.98" style="fill: #1f77b4; stroke: #1f77b4"/>
     <use xlink:href="#m9ad2884be1" x="107.723688" y="199.98" style="fill: #1f77b4; stroke: #1f77b4"/>
     <use xlink:href="#m9ad2884be1" x="111.822861" y="199.98" style="fill: #1f77b4; stroke: #1f77b4"/>
     <use xlink:href="#m9ad2884be1" x="115.922035" y="199.98" style="fill: #1f77b4; stroke: #1f77b4"/>
     <use xlink:href="#m9ad2884be1" x="120.021208" y="245.34" style="fill: #1f77b4; stroke: #1f77b4"/>
     <use xlink:href="#m9ad2884be1" x="124.120382" y="245.34" style="fill: #1f77b4; stroke: #1f77b4"/>
     <use xlink:href="#m9ad2884be1" x="128.219555" y="245.34" style="fill: #1f77b4; stroke: #1f77b4"/>
     <use xlink:href="#m9ad2884be1" x="132.318729" y="245.34" style="fill: #1f77b4; stroke: #1f77b4"/>
     <use xlink:href="#m9ad2884be1" x="136.417903" y="245.34" style="fill: #1f77b4; stroke: #1f77b4"/>
     <use xlink:href="#m9ad2884be1" x="140.517076" y="245.34" style="fill: #1f77b4; stroke: #1f77b4"/>
     <use xlink:href="#m9ad2884be1" x="144.61625" y="245.34" style="fill: #1f77b4; stroke: #1f77b4"/>
     <use xlink:href="#m9ad2884be1" x="148.715423" y="245.34" style="fill: #1f77b4; stroke: #1f77b4"/>
     <use xlink:href="#m9ad2884be1" x="152.814597" y="245.34" style="fill: #1f77b4; stroke: #1f77b4"/>
     <use xlink:href="#m9ad2884be1" x="156.91377" y="245.34" style="fill: #1f77b4; stroke: #1f77b4"/>
     <use xlink:href="#m9ad2884be1" x="161.012944" y="245.34" style="fill: #1f77b4; stroke: #1f77b4"/>
     <use xlink:href="#m9ad2884be1" x="165.112117" y="245.34" style="fill: #1f77b4; stroke: #1f77b4"/>
     <use xlink:href="#m9ad2884be1" x="169.211291" y="245.34" style="fill: #1f77b4; stroke: #1f77b4"/>
     <use xlink:href="#m9ad2884be1" x="173.310464" y="245.34" style="fill: #1f77b4; stroke: #1f77b4"/>
     <use xlink:href="#m9ad2884be1" x="177.409638" y="245.34" style="fill: #1f77b4; stroke: #1f77b4"/>
     <use xlink:href="#m9ad2884be1" x="181.508812" y="245.34" style="fill: #1f77b4; stroke: #1f77b4"/>
     <use xlink:href="#m9ad2884be1" x="185.607985" y="245.34" style="fill: #1f77b4; stroke: #1f77b4"/>
     <use xlink:href="#m9ad2884be1" x="189.707159" y="245.34" style="fill: #1f77b4; stroke: #1f77b4"/>
     <use xlink:href="#m9ad2884be1" x="193.806332" y="245.34" style="fill: #1f77b4; stroke: #1f77b4"/>
     <use xlink:href="#m9ad2884be1" x="197.905506" y="245.34" style="fill: #1f77b4; stroke: #1f77b4"/>
     <use xlink:href="#m9ad2884be1" x="202.004679" y="245.34" style="fill: #1f77b4; stroke: #1f77b4"/>
     <use xlink:href="#m9ad2884be1" x="206.103853" y="245.34" style="fill: #1f77b4; stroke: #1f77b4"/>
     <use xlink:href="#m9ad2884be1" x="210.203026" y="245.34" style="fill: #1f77b4; stroke: #1f77b4"/>
     <use xlink:href="#m9ad2884be1" x="214.3022" y="245.34" style="fill: #1f77b4; stroke: #1f77b4"/>
     <use xlink:href="#m9ad2884be1" x="218.401374" y="245.34" style="fill: #1f77b4; stroke: #1f77b4"/>
     <use xlink:href="#m9ad2884be1" x="222.500547" y="245.34" style="fill: #1f77b4; stroke: #1f77b4"/>
     <use xlink:href="#m9ad2884be1" x="226.599721" y="245.34" style="fill: #1f77b4; stroke: #1f77b4"/>
     <use xlink:href="#m9ad2884be1" x="230.698894" y="245.34" style="fill: #1f77b4; stroke: #1f77b4"/>
     <use xlink:href="#m9ad2884be1" x="234.798068" y="245.34" style="fill: #1f77b4; stroke: #1f77b4"/>
     <use xlink:href="#m9ad2884be1" x="238.897241" y="245.34" style="fill: #1f77b4; stroke: #1f77b4"/>
     <use xlink:href="#m9ad2884be1" x="242.996415" y="245.34" style="fill: #1f77b4; stroke: #1f77b4"/>
     <use xlink:href="#m9ad2884be1" x="247.095588" y="245.34" style="fill: #1f77b4; stroke: #1f77b4"/>
     <use xlink:href="#m9ad2884be1" x="251.194762" y="245.34" style="fill: #1f77b4; stroke: #1f77b4"/>
     <use xlink:href="#m9ad2884be1" x="255.293936" y="245.34" style="fill: #1f77b4; stroke: #1f77b4"/>
     <use xlink:href="#m9ad2884be1" x="259.393109" y="245.34" style="fill: #1f77b4; stroke: #1f77b4"/>
     <use xlink:href="#m9ad2884be1" x="263.492283" y="245.34" style="fill: #1f77b4; stroke: #1f77b4"/>
     <use xlink:href="#m9ad2884be1" x="267.591456" y="245.34" style="fill: #1f77b4; stroke: #1f77b4"/>
     <use xlink:href="#m9ad2884be1" x="271.69063" y="245.34" style="fill: #1f77b4; stroke: #1f77b4"/>
     <use xlink:href="#m9ad2884be1" x="275.789803" y="245.34" style="fill: #1f77b4; stroke: #1f77b4"/>
     <use xlink:href="#m9ad2884be1" x="279.888977" y="245.34" style="fill: #1f77b4; stroke: #1f77b4"/>
     <use xlink:href="#m9ad2884be1" x="283.98815" y="245.34" style="fill: #1f77b4; stroke: #1f77b4"/>
     <use xlink:href="#m9ad2884be1" x="288.087324" y="199.98" style="fill: #1f77b4; stroke: #1f77b4"/>
     <use xlink:href="#m9ad2884be1" x="292.186498" y="199.98" style="fill: #1f77b4; stroke: #1f77b4"/>
     <use xlink:href="#m9ad2884be1" x="296.285671" y="199.98" style="fill: #1f77b4; stroke: #1f77b4"/>
     <use xlink:href="#m9ad2884be1" x="300.384845" y="199.98" style="fill: #1f77b4; stroke: #1f77b4"/>
     <use xlink:href="#m9ad2884be1" x="304.484018" y="199.98" style="fill: #1f77b4; stroke: #1f77b4"/>
     <use xlink:href="#m9ad2884be1" x="308.583192" y="199.98" style="fill: #1f77b4; stroke: #1f77b4"/>
     <use xlink:href="#m9ad2884be1" x="312.682365" y="199.98" style="fill: #1f77b4; stroke: #1f77b4"/>
     <use xlink:href="#m9ad2884be1" x="316.781539" y="199.98" style="fill: #1f77b4; stroke: #1f77b4"/>
     <use xlink:href="#m9ad2884be1" x="320.880712" y="199.98" style="fill: #1f77b4; stroke: #1f77b4"/>
     <use xlink:href="#m9ad2884be1" x="324.979886" y="199.98" style="fill: #1f77b4; stroke: #1f77b4"/>
     <use xlink:href="#m9ad2884be1" x="329.07906" y="154.62" style="fill: #1f77b4; stroke: #1f77b4"/>
     <use xlink:href="#m9ad2884be1" x="333.178233" y="154.62" style="fill: #1f77b4; stroke: #1f77b4"/>
     <use xlink:href="#m9ad2884be1" x="337.277407" y="154.62" style="fill: #1f77b4; stroke: #1f77b4"/>
     <use xlink:href="#m9ad2884be1" x="341.37658" y="154.62" style="fill: #1f77b4; stroke: #1f77b4"/>
     <use xlink:href="#m9ad2884be1" x="345.475754" y="154.62" style="fill: #1f77b4; stroke: #1f77b4"/>
     <use xlink:href="#m9ad2884be1" x="349.574927" y="154.62" style="fill: #1f77b4; stroke: #1f77b4"/>
     <use xlink:href="#m9ad2884be1" x="353.674101" y="154.62" style="fill: #1f77b4; stroke: #1f77b4"/>
     <use xlink:href="#m9ad2884be1" x="357.773274" y="154.62" style="fill: #1f77b4; stroke: #1f77b4"/>
     <use xlink:href="#m9ad2884be1" x="361.872448" y="109.26" style="fill: #1f77b4; stroke: #1f77b4"/>
     <use xlink:href="#m9ad2884be1" x="365.971622" y="109.26" style="fill: #1f77b4; stroke: #1f77b4"/>
     <use xlink:href="#m9ad2884be1" x="370.070795" y="109.26" style="fill: #1f77b4; stroke: #1f77b4"/>
     <use xlink:href="#m9ad2884be1" x="374.169969" y="109.26" style="fill: #1f77b4; stroke: #1f77b4"/>
     <use xlink:href="#m9ad2884be1" x="378.269142" y="109.26" style="fill: #1f77b4; stroke: #1f77b4"/>
     <use xlink:href="#m9ad2884be1" x="382.368316" y="109.26" style="fill: #1f77b4; stroke: #1f77b4"/>
     <use xlink:href="#m9ad2884be1" x="386.467489" y="109.26" style="fill: #1f77b4; stroke: #1f77b4"/>
     <use xlink:href="#m9ad2884be1" x="390.566663" y="109.26" style="fill: #1f77b4; stroke: #1f77b4"/>
     <use xlink:href="#m9ad2884be1" x="394.665836" y="63.9" style="fill: #1f77b4; stroke: #1f77b4"/>
     <use xlink:href="#m9ad2884be1" x="398.76501" y="63.9" style="fill: #1f77b4; stroke: #1f77b4"/>
     <use xlink:href="#m9ad2884be1" x="402.864183" y="63.9" style="fill: #1f77b4; stroke: #1f77b4"/>
     <use xlink:href="#m9ad2884be1" x="406.963357" y="63.9" style="fill: #1f77b4; stroke: #1f77b4"/>
     <use xlink:href="#m9ad2884be1" x="411.062531" y="63.9" style="fill: #1f77b4; stroke: #1f77b4"/>
     <use xlink:href="#m9ad2884be1" x="415.161704" y="63.9" style="fill: #1f77b4; stroke: #1f77b4"/>
     <use xlink:href="#m9ad2884be1" x="419.260878" y="63.9" style="fill: #1f77b4; stroke: #1f77b4"/>
     <use xlink:href="#m9ad2884be1" x="423.360051" y="63.9" style="fill: #1f77b4; stroke: #1f77b4"/>
     <use xlink:href="#m9ad2884be1" x="427.459225" y="63.9" style="fill: #1f77b4; stroke: #1f77b4"/>
     <use xlink:href="#m9ad2884be1" x="431.558398" y="18.54" style="fill: #1f77b4; stroke: #1f77b4"/>
     <use xlink:href="#m9ad2884be1" x="435.657572" y="18.54" style="fill: #1f77b4; stroke: #1f77b4"/>
     <use xlink:href="#m9ad2884be1" x="439.756745" y="18.54" style="fill: #1f77b4; stroke: #1f77b4"/>
     <use xlink:href="#m9ad2884be1" x="443.855919" y="18.54" style="fill: #1f77b4; stroke: #1f77b4"/>
     <use xlink:href="#m9ad2884be1" x="447.955093" y="18.54" style="fill: #1f77b4; stroke: #1f77b4"/>
     <use xlink:href="#m9ad2884be1" x="452.054266" y="18.54" style="fill: #1f77b4; stroke: #1f77b4"/>
     <use xlink:href="#m9ad2884be1" x="456.15344" y="18.54" style="fill: #1f77b4; stroke: #1f77b4"/>
     <use xlink:href="#m9ad2884be1" x="460.252613" y="18.54" style="fill: #1f77b4; stroke: #1f77b4"/>
    </g>
   </g>
   <g id="patch_3">
    <path d="M 34.143522 256.68 
L 34.143522 7.2 
" style="fill: none; stroke: #000000; stroke-width: 0.8; stroke-linejoin: miter; stroke-linecap: square"/>
   </g>
   <g id="patch_4">
    <path d="M 34.143522 256.68 
L 480.543522 256.68 
" style="fill: none; stroke: #000000; stroke-width: 0.8; stroke-linejoin: miter; stroke-linecap: square"/>
   </g>
   <g id="legend_1">
    <g id="line2d_14">
     <g>
      <use xlink:href="#m9ad2884be1" x="64.543522" y="27.2" style="fill: #1f77b4; stroke: #1f77b4"/>
     </g>
    </g>
    <g id="text_13">
     <!-- Original line -->
     <g transform="translate(93.343522 32.8)scale(0.16 -0.16)">
      <defs>
       <path id="CMR17-4f" d="M 4307 2166 
C 4307 3488 3366 4480 2304 4480 
C 1216 4480 294 3475 294 2166 
C 294 857 1229 -128 2298 -128 
C 3392 -128 4307 876 4307 2166 
z
M 2304 -13 
C 1574 -13 781 722 781 2250 
C 781 3771 1651 4364 2298 4364 
C 2976 4364 3821 3752 3821 2250 
C 3821 696 3008 -13 2304 -13 
z
" transform="scale(0.015625)"/>
       <path id="CMR17-72" d="M 960 1517 
C 960 2134 1222 2713 1702 2713 
C 1747 2713 1792 2707 1837 2687 
C 1837 2687 1696 2642 1696 2475 
C 1696 2321 1818 2257 1914 2257 
C 1990 2257 2131 2302 2131 2482 
C 2131 2687 1926 2816 1709 2816 
C 1222 2816 1011 2340 947 2115 
L 941 2115 
L 941 2816 
L 198 2745 
L 198 2578 
C 576 2578 634 2540 634 2231 
L 634 443 
C 634 198 608 166 198 166 
L 198 0 
C 352 12 646 12 813 12 
C 998 12 1325 12 1498 0 
L 1498 166 
C 1037 166 960 166 960 455 
L 960 1517 
z
" transform="scale(0.015625)"/>
       <path id="CMR17-69" d="M 992 3961 
C 992 4102 877 4224 730 4224 
C 589 4224 467 4108 467 3961 
C 467 3820 582 3699 730 3699 
C 870 3699 992 3814 992 3961 
z
M 243 2745 
L 243 2579 
C 602 2579 653 2540 653 2231 
L 653 443 
C 653 198 627 166 218 166 
L 218 0 
C 371 12 646 12 806 12 
C 960 12 1222 12 1370 0 
L 1370 166 
C 992 166 979 205 979 436 
L 979 2816 
L 243 2745 
z
" transform="scale(0.015625)"/>
       <path id="CMR17-67" d="M 710 1165 
C 832 1068 1043 960 1299 960 
C 1805 960 2240 1359 2240 1895 
C 2240 2063 2189 2321 1997 2521 
C 2176 2713 2438 2777 2586 2777 
C 2611 2777 2650 2777 2682 2758 
C 2656 2751 2598 2726 2598 2623 
C 2598 2540 2656 2483 2739 2483 
C 2835 2483 2886 2547 2886 2630 
C 2886 2751 2790 2880 2586 2880 
C 2330 2880 2106 2758 1926 2591 
C 1734 2764 1504 2828 1299 2828 
C 794 2828 358 2431 358 1895 
C 358 1527 570 1294 634 1230 
C 442 1004 442 742 442 710 
C 442 544 506 300 723 166 
C 390 82 128 -184 128 -517 
C 128 -996 736 -1344 1466 -1344 
C 2170 -1344 2803 -1009 2803 -510 
C 2803 384 1856 384 1363 384 
C 1216 384 954 384 922 390 
C 723 422 589 601 589 825 
C 589 883 589 1024 710 1165 
z
M 1299 1068 
C 736 1068 736 1766 736 1895 
C 736 2024 736 2719 1299 2719 
C 1862 2719 1862 2024 1862 1895 
C 1862 1766 1862 1068 1299 1068 
z
M 1466 -1236 
C 826 -1236 384 -883 384 -517 
C 384 -311 493 -118 634 -11 
C 794 102 858 102 1293 102 
C 1818 102 2547 102 2547 -517 
C 2547 -883 2106 -1236 1466 -1236 
z
" transform="scale(0.015625)"/>
       <path id="CMR17-6e" d="M 2656 1954 
C 2656 2282 2592 2816 1837 2816 
C 1331 2816 1069 2424 973 2166 
L 966 2166 
L 966 2816 
L 211 2745 
L 211 2578 
C 589 2578 646 2540 646 2231 
L 646 443 
C 646 198 621 166 211 166 
L 211 0 
C 365 12 646 12 813 12 
C 979 12 1267 12 1421 0 
L 1421 166 
C 1011 166 986 192 986 443 
L 986 1678 
C 986 2269 1344 2713 1792 2713 
C 2266 2713 2317 2289 2317 1980 
L 2317 443 
C 2317 198 2291 166 1882 166 
L 1882 0 
C 2035 12 2317 12 2483 12 
C 2650 12 2938 12 3091 0 
L 3091 166 
C 2682 166 2656 192 2656 443 
L 2656 1954 
z
" transform="scale(0.015625)"/>
       <path id="CMR17-61" d="M 2304 1656 
C 2304 2048 2304 2275 2035 2534 
C 1798 2751 1523 2816 1306 2816 
C 800 2816 435 2408 435 1977 
C 435 1740 627 1728 666 1728 
C 749 1728 896 1779 896 1958 
C 896 2118 774 2188 666 2188 
C 640 2188 608 2182 589 2176 
C 723 2594 1069 2713 1293 2713 
C 1613 2713 1965 2421 1965 1875 
L 1965 1632 
C 1587 1619 1133 1568 774 1373 
C 371 1147 256 822 256 576 
C 256 77 832 -64 1171 -64 
C 1523 -64 1850 135 1990 505 
C 2003 219 2182 -39 2464 -39 
C 2598 -39 2938 51 2938 563 
L 2938 926 
L 2822 926 
L 2822 557 
C 2822 161 2650 109 2566 109 
C 2304 109 2304 446 2304 732 
L 2304 1656 
z
M 1965 887 
C 1965 323 1568 38 1216 38 
C 896 38 646 278 646 576 
C 646 771 730 1114 1101 1322 
C 1408 1497 1760 1523 1965 1536 
L 1965 887 
z
" transform="scale(0.015625)"/>
       <path id="CMR17-6c" d="M 979 4416 
L 218 4345 
L 218 4179 
C 595 4179 653 4141 653 3835 
L 653 439 
C 653 198 627 166 218 166 
L 218 0 
C 371 12 653 12 813 12 
C 979 12 1261 12 1414 0 
L 1414 166 
C 1005 166 979 191 979 439 
L 979 4416 
z
" transform="scale(0.015625)"/>
       <path id="CMR17-65" d="M 2438 1503 
C 2464 1529 2464 1542 2464 1606 
C 2464 2251 2118 2816 1389 2816 
C 710 2816 173 2175 173 1394 
C 173 554 781 -64 1459 -64 
C 2176 -64 2458 619 2458 755 
C 2458 800 2419 800 2406 800 
C 2362 800 2355 787 2330 709 
C 2189 270 1837 51 1504 51 
C 1229 51 954 206 781 490 
C 582 819 582 1200 582 1503 
L 2438 1503 
z
M 589 1600 
C 634 2511 1126 2713 1382 2713 
C 1818 2713 2112 2308 2118 1600 
L 589 1600 
z
" transform="scale(0.015625)"/>
      </defs>
      <use xlink:href="#CMR17-4f" transform="scale(0.996264)"/>
      <use xlink:href="#CMR17-72" transform="translate(71.714788 0)scale(0.996264)"/>
      <use xlink:href="#CMR17-69" transform="translate(106.995556 0)scale(0.996264)"/>
      <use xlink:href="#CMR17-67" transform="translate(131.866615 0)scale(0.996264)"/>
      <use xlink:href="#CMR17-69" transform="translate(177.557092 0)scale(0.996264)"/>
      <use xlink:href="#CMR17-6e" transform="translate(202.42815 0)scale(0.996264)"/>
      <use xlink:href="#CMR17-61" transform="translate(253.32352 0)scale(0.996264)"/>
      <use xlink:href="#CMR17-6c" transform="translate(299.013997 0)scale(0.996264)"/>
      <use xlink:href="#CMR17-6c" transform="translate(353.961022 0)scale(0.996264)"/>
      <use xlink:href="#CMR17-69" transform="translate(378.832081 0)scale(0.996264)"/>
      <use xlink:href="#CMR17-6e" transform="translate(403.703139 0)scale(0.996264)"/>
      <use xlink:href="#CMR17-65" transform="translate(454.598509 0)scale(0.996264)"/>
     </g>
    </g>
   </g>
  </g>
 </g>
 <defs>
  <clipPath id="pf01be8c6ed">
   <rect x="34.143522" y="7.2" width="446.4" height="249.48"/>
  </clipPath>
 </defs>
</svg>
